<?xml version="1.0" encoding="UTF-8"?><svg id="Calque_1" xmlns="http://www.w3.org/2000/svg" viewBox="0 0 104.06 139.11"><defs><style></style></defs><g id="gSs1KS"><g><path class="cls-1" d="m52.02,36.48c14.37,0,28.75,0,43.12,0,2.88,0,4.14,1.37,3.93,4.23-.57,7.8-1.11,15.61-1.68,23.41-.62,8.55-1.28,17.09-1.9,25.64-.57,7.77-1.11,15.55-1.68,23.32-.35,4.88-.67,9.77-1.09,14.65-.55,6.43-5.94,11.31-12.49,11.35-6.19.03-12.37.01-18.56.01-12.55,0-25.1,0-37.65,0-4.78,0-8.43-2.08-10.97-6.11-1.02-1.61-1.57-3.41-1.71-5.32-.6-8.22-1.2-16.44-1.81-24.66-.72-9.83-1.44-19.66-2.16-29.49-.6-8.16-1.19-16.32-1.79-24.48-.21-2.8-.41-5.6-.65-8.4-.22-2.62,1.15-4.16,3.78-4.16,14.43,0,28.86,0,43.3,0h0Zm-20.78,49.14s-.01,0-.02,0c-.24-7.88-.48-15.77-.73-23.65-.13-4.18-.27-8.36-.45-12.54-.07-1.65-1.48-2.9-3.09-2.87-1.61.03-2.95,1.33-3.02,2.96-.03.57.01,1.13.03,1.7.45,13.82.91,27.65,1.36,41.47.31,9.58.6,19.17.94,28.75.02.62.28,1.3.63,1.81.75,1.12,2.16,1.49,3.42,1.05,1.3-.45,2.08-1.6,2.03-3.14-.36-11.85-.74-23.71-1.11-35.56Zm41.45-.19h.02c-.12,3.82-.25,7.64-.36,11.46-.23,8-.44,16.01-.68,24.01-.06,2.01,1.12,3.52,2.92,3.6,1.85.08,3.2-1.32,3.25-3.38.03-1.28.04-2.57.08-3.85.34-11.73.68-23.47,1.02-35.2.16-5.46.33-10.93.48-16.39.15-5.31.3-10.63.42-15.95.04-1.75-1.3-3.12-2.98-3.16-1.64-.05-3.07,1.33-3.12,3.04-.35,11.94-.7,23.89-1.05,35.83Zm-23.73.09c0,11.32,0,22.65,0,33.97,0,.75-.04,1.5.02,2.24.16,1.91,2.05,3.17,3.88,2.63,1.47-.43,2.23-1.57,2.23-3.37,0-23.63,0-47.26,0-70.9,0-.24,0-.48-.01-.72-.18-1.91-2.02-3.18-3.87-2.68-1.49.4-2.26,1.56-2.26,3.43,0,11.8,0,23.6,0,35.4Z"/><path class="cls-1" d="m80.65,15.87c.44,0,.76,0,1.09,0,4.33,0,8.66,0,12.99,0,5.13,0,9.29,4.13,9.33,9.25,0,.57,0,1.14,0,1.7-.02,2.01-1.3,3.38-3.3,3.51-.42.03-.84,0-1.25,0-27.18,0-54.37,0-81.55,0-4.66,0-9.32-.05-13.98.03C1.59,30.4-.01,28.85,0,26.38c.01-3.04.65-5.74,2.9-7.89,1.78-1.7,3.91-2.6,6.38-2.61,4.75-.01,9.5,0,14.25,0,.33,0,.65,0,1.13,0,0-.92,0-1.8,0-2.68,0-1.84.29-3.64,1.08-5.31C28.03,3.03,31.83.18,37.23.1c10.27-.14,20.55-.12,30.83-.02,7.03.07,12.48,5.77,12.59,12.88.01.92,0,1.85,0,2.9Zm-7.71-.04c0-.81-.04-1.58,0-2.34.19-3.41-2.51-5.79-5.75-5.75-9.08.11-18.16.03-27.24.03-1.19,0-2.44-.12-3.56.18-3.72.98-4.47,4.17-3.87,7.88h40.41Z"/></g></g></svg>