<?xml version="1.0" encoding="utf-8"?>
<!-- Generator: Adobe Illustrator 27.1.1, SVG Export Plug-In . SVG Version: 6.00 Build 0)  -->
<svg version="1.1" id="Calque_1" xmlns="http://www.w3.org/2000/svg" xmlns:xlink="http://www.w3.org/1999/xlink" x="0px" y="0px"
	 viewBox="0 0 142.4 139.1" style="enable-background:new 0 0 142.4 139.1;" xml:space="preserve">
<style type="text/css">
	
</style>
<g id="_2Gkm7G">
	<g>
		<path class="st0" d="M71.3,124.9c-8.3,0-16.6,0-24.8,0c-2.6,0-5.3,0-8,0c-2.7,0-5.3-0.4-7.9-1.3c-3.2-1.2-6-3.1-8.4-5.6
			c-2.4-2.5-4.2-5.3-5.3-8.7c-0.6-2-1-4-1-6c0-4.8,0-9.5,0-14.2c0-6.5,0-12.9,0-19.4c0-6.4,0-12.9,0-19.3c0-4.6,0-9.3,0-13.9
			c0-5.4,1.8-10.1,5.3-14.1c2.1-2.4,4.5-4.4,7.3-5.8c2.3-1.1,4.7-2,7.3-2.1c2.5-0.1,5.1-0.1,7.6-0.1c8.4,0,16.8,0,25.2,0
			c4.1,0,8.3,0,12.4,0c1.2,0,1.8,0.7,1.6,1.9c-0.2,1.1-0.8,2.1-1.6,2.9c-1.3,1.4-2.6,2.7-4,4c-0.8,0.7-1.8,1-2.9,1.2
			c-0.6,0.1-1.3,0.1-1.9,0.1c-11.2,0-22.4,0-33.6,0c-2.6,0-4.9,0.6-7.1,2.1c-2.8,2-4.7,4.5-5.4,7.9c-0.3,1.5-0.2,3-0.2,4.5
			c0,6.6,0,13.2,0,19.8c0,6.5,0,12.9,0,19.4c0,6.5,0,12.9,0,19.4c0,1.5,0,3,0,4.6c-0.1,3.8,1.4,6.9,4.2,9.5c2.3,2.1,5,3.2,8.2,3.2
			c9.3,0,18.6,0,27.9,0c10.1,0,20.2,0,30.4,0c2.4,0,4.7,0,7.1,0c2.2,0,4.3-0.4,6.2-1.5c2.3-1.3,4-3.1,5.2-5.5
			c0.9-1.8,1.3-3.7,1.3-5.6c0-8.1,0-16.2,0-24.3c0-3.1,0-6.2,0-9.3c0-0.9,0.3-1.6,0.9-2.2c1.6-1.6,3.2-3.2,4.9-4.8
			c1-1,2.3-1.1,3.5-0.2c0.5,0.4,0.9,0.9,0.9,1.6c0,1.1,0.1,2.1,0.1,3.2c0,5.2,0,10.5,0,15.7c0,5.9,0,11.8-0.1,17.8
			c0,1.3,0,2.5,0,3.8c-0.2,5.1-1.9,9.6-5.2,13.4c-2.1,2.4-4.5,4.5-7.4,5.9c-2.3,1.1-4.7,1.9-7.3,2.1c-2.8,0.1-5.6,0.2-8.4,0.2
			C89.2,124.9,80.2,124.9,71.3,124.9L71.3,124.9L71.3,124.9z"/>
		<path class="st0" d="M42.2,87.9c0-3.2,0-6.4,0-9.6c0-0.7,0.2-1.2,0.7-1.6c6.6-6.5,13.1-13.1,19.6-19.6
			c8.6-8.6,17.2-17.2,25.8-25.8c1-1,2-2,3-3c0.5-0.5,0.5-0.5,1,0c2.5,2.5,4.9,5,7.4,7.4c4.2,4.2,8.4,8.4,12.7,12.7
			c0.7,0.7,0.9,0.6,0,1.4c-2.5,2.5-5,4.9-7.4,7.4c-2.7,2.7-5.4,5.3-8,8c-2.8,2.8-5.5,5.5-8.3,8.3c-3.1,3.2-6.3,6.3-9.4,9.4
			c-3.4,3.4-6.9,6.8-10.3,10.2c-1.6,1.6-3.3,3.2-4.9,4.9c-0.4,0.4-0.7,0.5-1.3,0.5c-4.6,0-9.1,0-13.7,0c-2,0-4.1,0-6.1,0
			c-0.8,0-0.8,0-0.8-0.8C42.2,94.5,42.2,91.2,42.2,87.9L42.2,87.9L42.2,87.9z M58.5,91.4C58.5,91.4,58.5,91.4,58.5,91.4
			c0.5,0,1,0,1.4,0c0.5,0,0.8-0.1,1.1-0.4c2.5-2.5,5-5,7.5-7.6c0.5-0.5,0.5-0.5,0-0.9c-2.3-2.3-4.7-4.7-7-7
			c-1.1-1.1-2.2-2.2-3.3-3.3c-0.3-0.3-0.5-0.3-0.7,0c-0.2,0.3-0.6,0.6-0.8,0.8c-2.3,2.3-4.6,4.6-6.8,6.8c-0.2,0.2-0.4,0.4-0.4,0.8
			c0,1.1,0,2.2,0,3.3c0,0.3,0.1,0.5,0.3,0.7c2.1,2.1,4.2,4.2,6.4,6.3c0.2,0.2,0.5,0.3,0.9,0.3C57.4,91.4,57.9,91.4,58.5,91.4
			L58.5,91.4z M91.9,37.9c-0.7,0-1.1,0.3-1.4,0.7c-3,3-6,6-9.1,9c-5.5,5.5-11,11-16.5,16.5c-0.2,0.2-0.3,0.3-0.5,0.5
			c-0.5,0.7-0.4,1.3,0.2,2s1.3,0.7,2,0.2c0.2-0.2,0.4-0.4,0.6-0.6c1.8-1.8,3.5-3.5,5.3-5.3c6.3-6.3,12.5-12.5,18.8-18.8
			c0.6-0.6,1.2-1.2,1.7-1.8c0.4-0.5,0.5-1,0.2-1.5C92.9,38.4,92.5,38,91.9,37.9L91.9,37.9z"/>
		<path class="st0" d="M126.6,33c0.1,1.6-0.7,3.2-2,4.6c-2.1,2.2-4.3,4.3-6.5,6.5c-0.4,0.4-0.4,0.4-0.9-0.1
			c-2.2-2.2-4.4-4.4-6.6-6.7c-4.5-4.5-9-9-13.5-13.5c-0.7-0.7-0.8-0.6,0-1.3c2-2,3.9-3.9,5.9-5.9c0.7-0.7,1.5-1.4,2.5-1.8
			c2.7-1,5.4-0.8,7.5,1.3c2.7,2.6,5.4,5.3,8,7.9c1.3,1.2,2.5,2.5,3.7,3.8C126.1,29.2,126.6,30.7,126.6,33L126.6,33z"/>
	</g>
</g>
</svg>
